<svg width="29" height="39" viewBox="0 0 29 39" fill="none" xmlns="http://www.w3.org/2000/svg">
<mask id="path-1-outside-1_49_2" maskUnits="userSpaceOnUse" x="-1" y="-1" width="31" height="41" fill="black">
<rect fill="white" x="-1" y="-1" width="31" height="41"/>
<path d="M28.64 3.32C28.64 4.12 28.4667 4.72 28.12 5.12C27.8 5.52 27.2667 5.72 26.52 5.72C26.4667 6.28 26.3467 7.25333 26.16 8.64C25.8933 10.5067 25.7467 11.5467 25.72 11.76C23.3467 29.44 18.4 38.28 10.88 38.28C8.66667 38.28 6.93333 37.6533 5.68 36.4C4.45333 35.1467 3.84 33.5733 3.84 31.68C3.84 28.2933 5.28 25.3067 8.16 22.72C11.04 20.1067 14.8267 17.9467 19.52 16.24C19.8133 14.3467 20.04 12.6533 20.2 11.16L20.92 5.12C19.32 4.96 17.8267 4.88 16.44 4.88C12.7333 4.88 10 5.24 8.24 5.96C6.48 6.68 5.6 7.85333 5.6 9.48C5.6 10.28 5.86667 11.1467 6.4 12.08C6.56 12.3467 6.64 12.6267 6.64 12.92C6.64 13.48 6.34667 13.9867 5.76 14.44C5.2 14.8667 4.58667 15.08 3.92 15.08C3.06667 15.08 2.41333 14.72 1.96 14C1.21333 12.7733 0.84 11.3467 0.84 9.72C0.84 3.32 6.44 0.119998 17.64 0.119998C20.8933 0.119998 23.8 0.439998 26.36 1.08C27.88 1.45333 28.64 2.2 28.64 3.32ZM11.4 34C12.7067 34 14.0133 33.0133 15.32 31.04C16.6267 29.0667 17.7733 25.6133 18.76 20.68C12.2533 23.5333 9 27.0267 9 31.16C9 32.0667 9.21333 32.7733 9.64 33.28C10.0667 33.76 10.6533 34 11.4 34Z"/>
</mask>
<path d="M28.64 3.32C28.64 4.12 28.4667 4.72 28.12 5.12C27.8 5.52 27.2667 5.72 26.52 5.72C26.4667 6.28 26.3467 7.25333 26.16 8.64C25.8933 10.5067 25.7467 11.5467 25.72 11.76C23.3467 29.44 18.4 38.28 10.88 38.28C8.66667 38.28 6.93333 37.6533 5.68 36.4C4.45333 35.1467 3.84 33.5733 3.84 31.68C3.84 28.2933 5.28 25.3067 8.16 22.72C11.04 20.1067 14.8267 17.9467 19.52 16.24C19.8133 14.3467 20.04 12.6533 20.2 11.16L20.92 5.12C19.32 4.96 17.8267 4.88 16.44 4.88C12.7333 4.88 10 5.24 8.24 5.96C6.48 6.68 5.6 7.85333 5.6 9.48C5.6 10.28 5.86667 11.1467 6.4 12.08C6.56 12.3467 6.64 12.6267 6.64 12.92C6.64 13.48 6.34667 13.9867 5.76 14.44C5.2 14.8667 4.58667 15.08 3.92 15.08C3.06667 15.08 2.41333 14.72 1.96 14C1.21333 12.7733 0.84 11.3467 0.84 9.72C0.84 3.32 6.44 0.119998 17.64 0.119998C20.8933 0.119998 23.8 0.439998 26.36 1.08C27.88 1.45333 28.64 2.2 28.64 3.32ZM11.4 34C12.7067 34 14.0133 33.0133 15.32 31.04C16.6267 29.0667 17.7733 25.6133 18.76 20.68C12.2533 23.5333 9 27.0267 9 31.16C9 32.0667 9.21333 32.7733 9.64 33.28C10.0667 33.76 10.6533 34 11.4 34Z" fill="#EF767A"/>
<path d="M28.12 5.12L27.3643 4.46507L27.3514 4.47994L27.3391 4.4953L28.12 5.12ZM26.52 5.72V4.72H25.6107L25.5245 5.62519L26.52 5.72ZM26.16 8.64L27.15 8.78143L27.1511 8.77341L26.16 8.64ZM25.72 11.76L26.7112 11.893L26.7123 11.884L25.72 11.76ZM5.68 36.4L4.96529 37.0995L4.97289 37.1071L5.68 36.4ZM8.16 22.72L8.82821 23.464L8.83199 23.4606L8.16 22.72ZM19.52 16.24L19.8617 17.1798L20.4176 16.9776L20.5082 16.3931L19.52 16.24ZM20.2 11.16L19.207 11.0416L19.2057 11.0535L20.2 11.16ZM20.92 5.12L21.913 5.23836L22.0336 4.22637L21.0195 4.12496L20.92 5.12ZM8.24 5.96L7.86137 5.03445L7.86137 5.03445L8.24 5.96ZM6.4 12.08L5.53176 12.5761L5.53703 12.5854L5.54251 12.5945L6.4 12.08ZM5.76 14.44L6.36606 15.2354L6.37145 15.2313L5.76 14.44ZM1.96 14L1.1058 14.5199L1.10974 14.5264L1.11377 14.5328L1.96 14ZM26.36 1.08L26.1175 2.05015L26.1215 2.05114L26.36 1.08ZM15.32 31.04L16.1538 31.5921L16.1538 31.5921L15.32 31.04ZM18.76 20.68L19.7406 20.8761L20.1172 18.9929L18.3584 19.7642L18.76 20.68ZM9.64 33.28L8.87509 33.9241L8.8837 33.9344L8.89259 33.9444L9.64 33.28ZM27.64 3.32C27.64 3.99815 27.49 4.32005 27.3643 4.46507L28.8757 5.77493C29.4433 5.11995 29.64 4.24185 29.64 3.32H27.64ZM27.3391 4.4953C27.2836 4.56469 27.107 4.72 26.52 4.72V6.72C27.4263 6.72 28.3164 6.47531 28.9009 5.74469L27.3391 4.4953ZM25.5245 5.62519C25.4732 6.16364 25.3557 7.11947 25.1689 8.50659L27.1511 8.77341C27.3377 7.38719 27.4601 6.39636 27.5155 5.81481L25.5245 5.62519ZM25.1701 8.49858C24.9044 10.3582 24.7558 11.4113 24.7277 11.636L26.7123 11.884C26.7375 11.6821 26.8823 10.6552 27.15 8.78142L25.1701 8.49858ZM24.7289 11.627C23.5482 20.4224 21.7392 26.9052 19.3573 31.1617C16.9908 35.3908 14.1543 37.28 10.88 37.28V39.28C15.1257 39.28 18.5225 36.7492 21.1027 32.1383C23.6675 27.5548 25.5185 20.7776 26.7111 11.893L24.7289 11.627ZM10.88 37.28C8.86218 37.28 7.40878 36.7146 6.38711 35.6929L4.97289 37.1071C6.45789 38.5921 8.47115 39.28 10.88 39.28V37.28ZM6.39467 35.7005C5.36633 34.6498 4.84 33.3348 4.84 31.68H2.84C2.84 33.8119 3.54034 35.6435 4.96533 37.0995L6.39467 35.7005ZM4.84 31.68C4.84 28.6192 6.12598 25.891 8.8282 23.464L7.4918 21.976C4.43402 24.7224 2.84 27.9675 2.84 31.68H4.84ZM8.83199 23.4606C11.5928 20.9554 15.2572 18.8542 19.8617 17.1798L19.1783 15.3002C14.3961 17.0392 10.4872 19.258 7.48801 21.9794L8.83199 23.4606ZM20.5082 16.3931C20.8033 14.4883 21.0323 12.779 21.1943 11.2665L19.2057 11.0535C19.0477 12.5277 18.8233 14.2051 18.5318 16.0869L20.5082 16.3931ZM21.193 11.2784L21.913 5.23836L19.927 5.00163L19.207 11.0416L21.193 11.2784ZM21.0195 4.12496C19.3915 3.96216 17.8646 3.88 16.44 3.88V5.88C17.7887 5.88 19.2485 5.95783 20.8205 6.11503L21.0195 4.12496ZM16.44 3.88C12.7031 3.88 9.80822 4.23801 7.86137 5.03445L8.61863 6.88555C10.1918 6.24198 12.7636 5.88 16.44 5.88V3.88ZM7.86137 5.03445C6.86265 5.44302 6.03612 6.01183 5.46 6.78C4.87602 7.55864 4.6 8.47515 4.6 9.48H6.6C6.6 8.85818 6.76398 8.37469 7.06 7.98C7.36388 7.57483 7.85735 7.19698 8.61863 6.88555L7.86137 5.03445ZM4.6 9.48C4.6 10.5038 4.94067 11.5417 5.53176 12.5761L7.26824 11.5839C6.79266 10.7516 6.6 10.0562 6.6 9.48H4.6ZM5.54251 12.5945C5.6151 12.7155 5.64 12.8189 5.64 12.92H7.64C7.64 12.4344 7.5049 11.9778 7.25749 11.5655L5.54251 12.5945ZM5.64 12.92C5.64 13.0759 5.57601 13.3184 5.14855 13.6487L6.37145 15.2313C7.11732 14.6549 7.64 13.8841 7.64 12.92H5.64ZM5.15396 13.6446C4.75769 13.9465 4.35494 14.08 3.92 14.08V16.08C4.8184 16.08 5.64231 15.7868 6.36604 15.2354L5.15396 13.6446ZM3.92 14.08C3.40904 14.08 3.07583 13.8954 2.80623 13.4672L1.11377 14.5328C1.75084 15.5446 2.72429 16.08 3.92 16.08V14.08ZM2.8142 13.4801C2.17507 12.4301 1.84 11.1882 1.84 9.72H-0.16C-0.16 11.5052 0.2516 13.1166 1.1058 14.5199L2.8142 13.4801ZM1.84 9.72C1.84 6.88232 3.0447 4.81192 5.53614 3.38824C8.11113 1.91682 12.1025 1.12 17.64 1.12V-0.880002C11.9775 -0.880002 7.56887 -0.0768243 4.54386 1.65175C1.4353 3.42807 -0.16 6.15768 -0.16 9.72H1.84ZM17.64 1.12C20.8297 1.12 23.6526 1.43394 26.1175 2.05014L26.6025 0.109857C23.9474 -0.553939 20.9569 -0.880002 17.64 -0.880002V1.12ZM26.1215 2.05114C26.7836 2.21376 27.1638 2.43156 27.3692 2.63334C27.5471 2.80817 27.64 3.01295 27.64 3.32H29.64C29.64 2.50705 29.3529 1.7785 28.7708 1.20666C28.2162 0.661768 27.4564 0.319577 26.5985 0.108863L26.1215 2.05114ZM11.4 35C13.2407 35 14.8083 33.6241 16.1538 31.5921L14.4862 30.4879C13.2184 32.4026 12.1726 33 11.4 33V35ZM16.1538 31.5921C17.5753 29.4452 18.7507 25.8257 19.7406 20.8761L17.7794 20.4839C16.796 25.401 15.678 28.6881 14.4862 30.4879L16.1538 31.5921ZM18.3584 19.7642C11.7691 22.6538 8 26.3941 8 31.16H10C10 27.6592 12.7376 24.4129 19.1616 21.5958L18.3584 19.7642ZM8 31.16C8 32.2156 8.24876 33.1804 8.87509 33.9241L10.4049 32.6359C10.1779 32.3663 10 31.9177 10 31.16H8ZM8.89259 33.9444C9.54057 34.6733 10.4189 35 11.4 35V33C10.8878 33 10.5928 32.8467 10.3874 32.6156L8.89259 33.9444Z" fill="black" fill-opacity="0.8" mask="url(#path-1-outside-1_49_2)"/>
</svg>
